<svg width="64" height="64" viewBox="0 0 64 64" fill="none" xmlns="http://www.w3.org/2000/svg">
<path fill-rule="evenodd" clip-rule="evenodd" d="M32.0026 58.6663C46.7302 58.6663 58.6693 46.7273 58.6693 31.9997C58.6693 17.2721 46.7302 5.33301 32.0026 5.33301C17.275 5.33301 5.33594 17.2721 5.33594 31.9997C5.33594 46.7273 17.275 58.6663 32.0026 58.6663ZM26.0026 23.9997C26.0026 22.8951 26.898 21.9997 28.0026 21.9997H40.0026C41.1072 21.9997 42.0026 22.8951 42.0026 23.9997V35.9997C42.0026 37.1042 41.1072 37.9997 40.0026 37.9997C38.898 37.9997 38.0026 37.1042 38.0026 35.9997V28.8281L25.4168 41.4139C24.6358 42.1949 23.3694 42.1949 22.5884 41.4139C21.8073 40.6328 21.8073 39.3665 22.5884 38.5855L35.1742 25.9997H28.0026C26.898 25.9997 26.0026 25.1042 26.0026 23.9997Z" fill="white"/>
</svg>
